<svg xmlns="http://www.w3.org/2000/svg" viewBox="0 0 1540.62 604.28"><defs><style>.cls-1{fill:#d6b884;}.cls-2{fill:#58595b;}</style></defs><g id="Layer_2" data-name="Layer 2"><g id="Layer_1-2" data-name="Layer 1"><path class="cls-1" d="M203.87,134c1.23-3,2.59-6,3.67-9.09,2.55-7.26,5.24-14.48,7.38-21.86,4.49-15.54,12.75-28,27.28-35.93a40.31,40.31,0,0,1,47.21,6.26c12.14,11.79,18.24,26.51,19.95,43.1,3,29-6.28,55-19.39,80.13-7.58,14.54-18.11,26-33.07,33.15-11.14,5.3-23,7.72-35.22,8.53-16.65,1.11-33.11-.79-49.62-2.92-19.46-2.51-34.75,5.41-42.81,26.19-2.23,5.75-3.38,11.91-5.27,18.76-1.09-5.73-2.43-10.82-3-16-2.34-22.69,2.15-43.65,15.84-62.38,12.52-17.12,29.57-26.41,50.18-29.1,15.2-2,30.55-2.83,45.82-4.3,12.1-1.16,24.09-2.71,35.59-7.21C289.8,153,302.32,123,293.29,101.39c-4.91-11.71-13.23-20-26.4-22.07a29.82,29.82,0,0,0-7,.27c-3.52.31-5.37,1.75-5.94,5.8-2.4,17.28-12,26.16-29.47,28.35a9.43,9.43,0,0,0-5.41,2.94c-5,5.73-9.65,11.74-14.44,17.65ZM278.24,178a8.12,8.12,0,0,0-.95.79c-.73.84-1.4,1.72-2.12,2.55-12,13.72-25.94,24.41-43.76,29.44-14.65,4.14-29.4,1.73-44.12.72-10.47-.72-20.75-.13-30.58,3.79a27.16,27.16,0,0,0-12.85,10.36c4.78-2.21,9.07-4.67,13.67-6.23,9.88-3.36,20-1.66,30-.46,13.17,1.58,26.3,4.06,39.58,1.21C251.33,214.93,267.54,199.86,278.24,178Z"/><path class="cls-1" d="M133,393.41c2.61-3.44,5.8-6.88,8.13-10.84,5.37-9.12,4.91-18.67-.14-27.64-4.11-7.32-9.15-14.13-13.89-21.09C115.46,316.77,106.58,298.46,103,278c-4.61-25.95-3.11-51.29,10.11-74.83,12.87-22.92,33.74-35,58.23-41.94a7.57,7.57,0,0,1,1.65-.16c.41,0,.81.06,1.94.15-3.74,1.8-6.92,3.27-10,4.86-26.82,13.59-45.7,33.62-51.31,64.11-4.66,25.32-1.54,50,8.6,73.42,5.12,11.85,11.81,23.06,18.16,34.35,4.62,8.22,9.22,16.29,10,26C151.24,375.85,142.94,390,133,393.41Z"/><path class="cls-1" d="M84.68,398.57c17.45-28.36,16.1-58,7.37-88.23-5-17.11-8.35-34.37-7-52.27,1.58-21.71,8.11-41.65,21.69-59a20.33,20.33,0,0,1,1.39-1.54,5.86,5.86,0,0,1,.9-.55c-2.5,6.29-5.21,12.28-7.27,18.49-9.47,28.59-8.9,57.31-.55,86.05,4.19,14.41,7,29,6.23,44.11-1,18.55-6,35.63-19.07,49.57-.67.71-1.37,1.38-2.08,2C85.75,397.73,85.21,398.14,84.68,398.57Z"/><path class="cls-1" d="M125.18,168.65c-6,4.16-12.54,8-18.36,12.78-14.89,12.08-23.22,28.46-29.39,46.23-4.61,13.27-8.65,26.8-16.38,38.79-7.36,11.42-17.32,19-31,20.51-9.78,1.11-18.88-1.13-26.79-7.4a47,47,0,0,0,22.25,1.86C38.9,279.1,48,270.92,53.38,259S63,235,67.54,222.83c6.44-17.19,15.79-32.25,30.94-43.14a65.12,65.12,0,0,1,24-10.86A16,16,0,0,1,125.18,168.65Z"/><path class="cls-1" d="M144.41,151.86c-23.67,4.27-45.5,12.26-63.84,28-5.94,5.1-11.1,11.17-16.28,17.09-7.45,8.5-15.35,16.32-26.2,20.39A33.38,33.38,0,0,1,0,206.81c.9.48,1.79,1,2.7,1.42,14.87,7.44,28.66,6,40.95-5.25,6.47-5.95,12-13,17.72-19.69,15-17.36,33.87-27.71,56.36-31.21,7.3-1.13,14.85-.71,22.29-.89A25.62,25.62,0,0,1,144.41,151.86Z"/><path class="cls-1" d="M228.86,11.61A9.84,9.84,0,0,1,219,21.74a10.06,10.06,0,0,1-10.18-9.86,10,10,0,1,1,20-.27Z"/><path class="cls-1" d="M263.55,9.73a9.89,9.89,0,0,1-9.81,9.74,9.69,9.69,0,0,1-9.63-9.84A9.9,9.9,0,0,1,253.62,0C258.63-.15,263.52,4.65,263.55,9.73Z"/><path class="cls-1" d="M204.94,34.17a8,8,0,0,1-7.82,8A8.53,8.53,0,0,1,189,34.27a8,8,0,0,1,8-7.89A7.72,7.72,0,0,1,204.94,34.17Z"/><path class="cls-1" d="M198.29,61.93a7.82,7.82,0,0,1-8,7.73,7.88,7.88,0,1,1,.3-15.76A7.82,7.82,0,0,1,198.29,61.93Z"/><path class="cls-1" d="M220.25,25.33,225.59,24q3,18.56,5.93,37.12Q225.88,43.21,220.25,25.33Z"/><path class="cls-1" d="M247.86,22.3l5.34,1.58L242.88,58.55Z"/><path class="cls-1" d="M205.37,40.89l20.09,26.79L202.77,43Z"/><path class="cls-1" d="M200.45,68.26l2.19-5.07,17.65,11Z"/><path class="cls-2" d="M254.05,449.51q-7.89,0-19.43-.84t-21.42-.85q-9,0-17.46.29t-15.22.28c-.37,0-.56-.57-.56-1.69s.19-1.69.56-1.69q10.71,0,16.2-1.41t7.33-5.64q1.83-4.21,1.83-12.39V295.13q0-8.17-1.83-12.26t-7.18-5.63q-5.37-1.55-16.06-1.55c-.38,0-.57-.56-.57-1.69s.19-1.69.57-1.69q6.75,0,15.07.42t17.32.42q9,0,19.3-.7t17.61-.7q30.13,0,52.68,11.27t35.08,30.7a78.91,78.91,0,0,1,12.53,43.67q0,21.14-7.6,38.17a84.69,84.69,0,0,1-21,29A95.42,95.42,0,0,1,291,443,105.06,105.06,0,0,1,254.05,449.51Zm-2.81-3.66q23.65,0,41.83-9.44a68.65,68.65,0,0,0,28.6-27.89q10.43-18.45,10.42-44.93,0-24.79-9.72-44.65a79,79,0,0,0-27.46-31.7q-17.76-11.83-42.26-11.83-17.19,0-24.51,3.52t-7.33,16.76V422.47q0,12.12,5.78,17.75T251.24,445.85Z"/><path class="cls-2" d="M418.3,425.57q0,8.18,1.69,12.39t7.18,5.64q5.49,1.41,16.2,1.41c.38,0,.56.56.56,1.69s-.18,1.69-.56,1.69q-6.76,0-14.93-.28t-18-.29q-9.3,0-17.61.29t-15.07.28c-.57,0-.85-.57-.85-1.69s.28-1.69.85-1.69c7.13,0,12.54-.47,16.2-1.41s6.1-2.82,7.32-5.64,1.83-6.94,1.83-12.39V295.13q0-8.17-1.83-12.26t-7.32-5.63c-3.66-1-9.07-1.55-16.2-1.55-.57,0-.85-.56-.85-1.69s.28-1.69.85-1.69q6.76,0,15.07.42t17.61.42q9.85,0,18.17-.42t14.79-.42c.38,0,.56.56.56,1.69s-.18,1.69-.56,1.69q-10.71,0-16.06,1.69t-7.18,5.92c-1.23,2.81-1.83,6.95-1.83,12.39Z"/><path class="cls-2" d="M496.05,306.4q0,11.84,5.77,20.14a56.36,56.36,0,0,0,14.94,14.51q9.15,6.19,19.29,12.11,10.43,5.93,20,12.54A62.18,62.18,0,0,1,572,381.48q6.35,9.15,6.34,22.68A46.27,46.27,0,0,1,572,428q-6.33,10.85-19,17.33t-31.84,6.48a87.43,87.43,0,0,1-12.25-.85,69.33,69.33,0,0,1-12.4-3,104.38,104.38,0,0,1-13.66-5.77,3.93,3.93,0,0,1-1.83-2.11,19.53,19.53,0,0,1-.71-3.24l-4.22-36.63c-.19-.94.23-1.45,1.26-1.55s1.65.24,1.84,1a70.13,70.13,0,0,0,4.5,16.9,58.85,58.85,0,0,0,9.16,15.5,42.92,42.92,0,0,0,34.51,15.77,45.26,45.26,0,0,0,16.9-3.24A29.38,29.38,0,0,0,557.61,434q5.21-7.32,5.21-20,0-13.8-6.06-23a59.91,59.91,0,0,0-15.35-15.78,231.94,231.94,0,0,0-19.72-12.54q-9.87-5.91-19.16-12.39A55.53,55.53,0,0,1,487.46,335q-5.79-8.87-5.78-22.11,0-14.65,7.33-24.37A44.41,44.41,0,0,1,508,274a63.73,63.73,0,0,1,24.37-4.79,81.47,81.47,0,0,1,15.36,1.55A85.39,85.39,0,0,1,564.51,276a7.32,7.32,0,0,1,3.24,2.11,4.35,4.35,0,0,1,1,2.68l2.54,29.86c0,.76-.52,1.13-1.55,1.13s-1.65-.37-1.83-1.13a51.9,51.9,0,0,0-3-12.81,41.19,41.19,0,0,0-7-12.26,35.39,35.39,0,0,0-11.84-9.16q-7.17-3.51-17.32-3.52-12.12,0-19.3,5.07a28.48,28.48,0,0,0-10.28,12.68A41.36,41.36,0,0,0,496.05,306.4Z"/><path class="cls-2" d="M710.15,269.21a145.84,145.84,0,0,1,27.33,2.68q14.09,2.67,22.82,7.74a9.57,9.57,0,0,1,3,2.54,10.6,10.6,0,0,1,1,4.23L767.34,316c0,.38-.47.7-1.4,1s-1.51.05-1.69-.7q-5.64-22.81-23.25-32t-41.83-9.15q-22.26,0-38.88,9.43a66.41,66.41,0,0,0-25.92,26.49q-9.3,17-9.3,39.86a108,108,0,0,0,6.62,38,98,98,0,0,0,18.32,31,88.89,88.89,0,0,0,26.76,20.85,70.05,70.05,0,0,0,32,7.61q20,0,35.35-10.71t22.68-33.81c.19-.74.8-1,1.83-.7s1.55.61,1.55,1l-3.94,30.14a12.26,12.26,0,0,1-1.27,4.37,8.2,8.2,0,0,1-3.24,2.11,125,125,0,0,1-26.9,8.45,144.34,144.34,0,0,1-26.91,2.54q-26.76,0-45.92-8.31t-31.13-22a89.14,89.14,0,0,1-17.61-30.14,100.86,100.86,0,0,1-5.63-32.82,77.88,77.88,0,0,1,8.45-36.35A88.38,88.38,0,0,1,639,294a108.56,108.56,0,0,1,33-18.31A114.39,114.39,0,0,1,710.15,269.21Z"/><path class="cls-2" d="M885.38,451.77q-20.28,0-36.76-7.19a82.79,82.79,0,0,1-28.17-19.86,90.25,90.25,0,0,1-18-29.16,96.7,96.7,0,0,1-6.34-35.07q0-22.82,8.87-40a85.44,85.44,0,0,1,23.53-28.59,103.46,103.46,0,0,1,32.11-17,112.33,112.33,0,0,1,34.66-5.64q20.84,0,37.32,7.47a84.55,84.55,0,0,1,28,20.14,88.85,88.85,0,0,1,17.61,28.74,92.6,92.6,0,0,1,6.06,33,85.48,85.48,0,0,1-7.89,36.62,94.45,94.45,0,0,1-21.55,29.58,101.92,101.92,0,0,1-69.45,27Zm10.15-5.64A71,71,0,0,0,931.31,437q16.05-9.15,25.49-27.05t9.44-43.52q0-26.78-10.28-47.19a79.13,79.13,0,0,0-28.88-32.12q-18.6-11.69-43.67-11.69-32.68,0-51,20.28t-18.31,55.22a116.42,116.42,0,0,0,5.77,37,93.53,93.53,0,0,0,16.62,30.42,77.38,77.38,0,0,0,25.78,20.43A74.54,74.54,0,0,0,895.53,446.13Z"/><path class="cls-2" d="M1186.83,272.31c.56,0,.84.56.84,1.69s-.28,1.69-.84,1.69a31.21,31.21,0,0,0-15.36,3.66q-6.62,3.67-11.69,15.78l-62,153c-.19.74-1.17,1.12-3,1.12s-2.86-.38-3.24-1.12L1022,295.69q-4.8-11-10.14-15.49t-14.37-4.51c-.57,0-.85-.56-.85-1.69s.28-1.69.85-1.69c2.63,0,5.3.1,8,.28s5.44.33,8.17.42,5.3.14,7.74.14q6.77,0,12.4-.14c3.76-.09,7.18-.23,10.28-.42s6.06-.28,8.88-.28c.56,0,.84.56.84,1.69s-.28,1.69-.84,1.69q-10.71,0-15.22,3.52t.29,13.67l63.1,139.45-7.6,10.42,60.28-149.31q3.95-9.85-.28-13.81t-20-3.94c-.56,0-.84-.56-.84-1.69s.28-1.69.84-1.69q6.48,0,12.54.42c4,.28,9.25.42,15.63.42q8.18,0,13.1-.42T1186.83,272.31Z"/><path class="cls-2" d="M1314.73,448.39H1198.37c-.37,0-.56-.57-.56-1.69s.19-1.69.56-1.69q10.71,0,16.06-1.41t7.19-5.64q1.83-4.21,1.83-12.39V295.13q0-8.17-1.83-12.26t-7.19-5.63q-5.36-1.55-16.06-1.55c-.37,0-.56-.56-.56-1.69s.19-1.69.56-1.69h111.57a2.24,2.24,0,0,1,2.53,2.54l.57,34.08c0,.57-.52.85-1.55.85s-1.55-.28-1.55-.85q0-14.64-7.61-23t-20-8.31h-19.44q-10.42,0-15.64,1.41t-7,5.49q-1.83,4.1-1.83,12.26V424.44q0,7.89,1.83,11.83t7,5.36q5.22,1.41,15.64,1.4h25.92q11.26,0,19.44-9.86t10.14-25.91c0-.57.56-.8,1.69-.71s1.69.42,1.69,1q-1.12,7.32-1.83,17.6t-.7,19C1319.24,447,1317.73,448.39,1314.73,448.39ZM1299,382.18q0-12.68-5.35-17.75t-18.88-5.07h-43.38V354h44.23q12.95,0,18-4.37t5.07-15.07c0-.37.56-.56,1.69-.56s1.69.19,1.69.56q0,8.18-.14,12.68c-.1,3-.14,6.2-.14,9.58q0,6.19.28,12.25t.28,13.1c0,.38-.56.57-1.69.57S1299,382.56,1299,382.18Z"/><path class="cls-2" d="M1414.17,271.46q22.55,0,34.23,9.44t11.69,25.78a44.48,44.48,0,0,1-4.64,19.86,53.44,53.44,0,0,1-12.82,16.62,63.62,63.62,0,0,1-18.88,11.41,61.53,61.53,0,0,1-22.82,4.23q-2.54,0-5.91-.14c-2.26-.09-4.33-.24-6.2-.42v67.33q0,8.18,1.69,12.39t7.18,5.64q5.49,1.41,16.2,1.41c.56,0,.85.56.85,1.69s-.29,1.69-.85,1.69q-6.77,0-14.79-.28t-17.89-.29q-9,0-17.46.29t-15.22.28c-.38,0-.56-.57-.56-1.69s.18-1.69.56-1.69q10.71,0,16.2-1.41t7.47-5.64q2-4.21,2-12.39V295.13q0-8.17-1.83-12.26t-7.19-5.63q-5.36-1.55-16.06-1.55c-.56,0-.84-.56-.84-1.69s.28-1.69.84-1.69q6.48,0,14.8.42t17.32.42q7.32,0,17-.84T1414.17,271.46Zm30.15,44.8q0-15.21-4.93-24.23a29.61,29.61,0,0,0-13.1-13,42.27,42.27,0,0,0-18.6-3.94,50.31,50.31,0,0,0-11,1,8.46,8.46,0,0,0-6.06,5.21q-1.83,4.23-1.83,14.37v55.78q3.95.28,8.59.71t8.31.42q20.57,0,29.58-8.59T1444.32,316.26Zm49.58,132.13q-4.8,0-15.78-11.41t-26.48-32.4q-15.5-21-34.65-50l13.52-4.5q24.23,35.49,41.13,56.2T1501.51,436q12.95,9,25.07,9c.56,0,.85.56.85,1.69s-.29,1.69-.85,1.69H1493.9Z"/><path class="cls-1" d="M1045.77,586.12a24,24,0,0,0,1.15,8.44q1.15,2.88,4.9,3.84a47.45,47.45,0,0,0,11,1c.25,0,.38.38.38,1.15s-.13,1.15-.38,1.15q-4.61,0-10.17-.19t-12.28-.19q-6.33,0-12,.19t-10.27.19c-.38,0-.57-.38-.57-1.15s.19-1.15.57-1.15a47.45,47.45,0,0,0,11-1,6.86,6.86,0,0,0,5-3.84,22.14,22.14,0,0,0,1.25-8.44V497.28q0-5.56-1.25-8.35a7.16,7.16,0,0,0-5-3.83,43,43,0,0,0-11-1.06c-.38,0-.57-.38-.57-1.15s.19-1.15.57-1.15c3.07,0,6.49.09,10.27.29s7.77.28,12,.28q6.72,0,12.38-.28c3.77-.2,7.13-.29,10.07-.29.25,0,.38.38.38,1.15s-.13,1.15-.38,1.15a39.13,39.13,0,0,0-10.94,1.15,7.36,7.36,0,0,0-4.89,4,22.18,22.18,0,0,0-1.25,8.44Z"/><path class="cls-1" d="M1094.89,581.71V486.15l4.22.39v95.17q0,9.78,3.26,13.72t11.32,3.93c.39,0,.58.38.58,1.15s-.19,1.15-.58,1.15q-3.64,0-7.57-.19c-2.63-.12-5.54-.19-8.74-.19s-6,.07-8.82.19-5.5.19-8.06.19c-.26,0-.38-.38-.38-1.15s.12-1.15.38-1.15q8.45,0,11.42-3.93T1094.89,581.71Zm96.52,22.06c0,.26-.33.42-1,.48a2.75,2.75,0,0,1-1.35-.09l-86.73-106.69q-6.52-7.86-11.6-10.65a20.32,20.32,0,0,0-9.69-2.78c-.39,0-.58-.38-.58-1.15s.19-1.15.58-1.15q3.26,0,6.71.19t6.14.19c1.79,0,3.48-.06,5.09-.19s2.78-.19,3.55-.19a3.47,3.47,0,0,1,3.45,2.2q1,2.22,5.37,7.78l78.48,97.47Zm0-101.88V603.77l-4.23-5.95V501.89q0-9.79-3.07-13.82T1173,484c-.26,0-.39-.38-.39-1.15s.13-1.15.39-1.15c2.55,0,5.14.09,7.77.29s5.53.28,8.73.28q4.41,0,8.82-.28c2.94-.2,5.63-.29,8.06-.29.39,0,.58.38.58,1.15s-.19,1.15-.58,1.15q-8.25,0-11.61,4T1191.41,501.89Z"/><path class="cls-1" d="M1268.35,602.43q-5.38,0-13.24-.58t-14.59-.57q-6.13,0-11.89.19t-10.36.19c-.26,0-.39-.38-.39-1.15s.13-1.15.39-1.15a47.45,47.45,0,0,0,11-1,6.9,6.9,0,0,0,5-3.84,22.14,22.14,0,0,0,1.25-8.44V497.28q0-5.56-1.25-8.35a7.17,7.17,0,0,0-4.89-3.83,41.93,41.93,0,0,0-10.94-1.06c-.26,0-.38-.38-.38-1.15s.12-1.15.38-1.15c3.07,0,6.49.09,10.26.29s7.71.28,11.8.28,8.48-.15,13.15-.48,8.66-.48,12-.48q20.53,0,35.88,7.68a59.24,59.24,0,0,1,23.89,20.91,53.76,53.76,0,0,1,8.54,29.75,63.2,63.2,0,0,1-5.18,26,57.78,57.78,0,0,1-14.3,19.76,65,65,0,0,1-21,12.57A71.72,71.72,0,0,1,1268.35,602.43Zm-1.92-2.49q16.11,0,28.49-6.43a46.89,46.89,0,0,0,19.48-19q7.1-12.56,7.1-30.6a68.35,68.35,0,0,0-6.62-30.42,53.92,53.92,0,0,0-18.71-21.58q-12.09-8.06-28.78-8.06-11.72,0-16.7,2.4t-5,11.41V584q0,8.25,3.93,12.09T1266.43,599.94Z"/><path class="cls-1" d="M1380.21,586.12a23.75,23.75,0,0,0,1.15,8.44,6.59,6.59,0,0,0,4.89,3.84,47.55,47.55,0,0,0,11,1c.25,0,.38.38.38,1.15s-.13,1.15-.38,1.15q-4.61,0-10.17-.19t-12.28-.19q-6.33,0-12,.19t-10.26.19c-.38,0-.58-.38-.58-1.15s.2-1.15.58-1.15a47.45,47.45,0,0,0,11-1,6.86,6.86,0,0,0,5-3.84,22.14,22.14,0,0,0,1.25-8.44V497.28q0-5.56-1.25-8.35a7.16,7.16,0,0,0-5-3.83,43,43,0,0,0-11-1.06c-.38,0-.58-.38-.58-1.15s.2-1.15.58-1.15c3.07,0,6.49.09,10.26.29s7.78.28,12,.28q6.71,0,12.37-.28c3.78-.2,7.13-.29,10.08-.29.25,0,.38.38.38,1.15s-.13,1.15-.38,1.15a39.08,39.08,0,0,0-10.94,1.15,7.36,7.36,0,0,0-4.89,4,22,22,0,0,0-1.25,8.44Z"/><path class="cls-1" d="M1539.85,599.36c.51,0,.77.38.77,1.15s-.26,1.15-.77,1.15c-3.58,0-7.26-.12-11-.38s-7.39-.39-10.84-.39q-6,0-10.27.39c-2.88.26-6,.38-9.5.38-.51,0-.76-.38-.76-1.15s.25-1.15.76-1.15q10.74,0,13.53-2.88t-.86-10.94l-43.37-93.25,3.65-3.26-37,89q-4.78,11.72-.76,16.5t17.07,4.8c.64,0,1,.38,1,1.15s-.32,1.15-1,1.15c-3.83,0-7.35-.12-10.55-.38s-7.23-.39-12.09-.39q-6.72,0-10.84.39c-2.75.26-6,.38-9.88.38-.51,0-.77-.38-.77-1.15s.26-1.15.77-1.15a20,20,0,0,0,9-1.92,19.67,19.67,0,0,0,7.19-6.91,83.82,83.82,0,0,0,7.2-14.2l40.1-96.51a1.4,1.4,0,0,1,1.25-.58c.58,0,.93.2,1.05.58l44.52,95.56a118.32,118.32,0,0,0,7.87,14.87q3.45,5.28,6.9,7.19A15.58,15.58,0,0,0,1539.85,599.36Zm-92.49-62.74,2.88-3.65h39.53l1.34,3.65Z"/></g></g></svg>